<svg xmlns="http://www.w3.org/2000/svg" viewBox="0 0 512 640" fill="none" x="0px" y="0px"><path d="M376.792 302.002C378.785 301.935 380.102 302.355 381.647 303.627C383.762 305.372 385.685 307.627 387.625 309.59C391.105 313.11 394.622 316.597 398.135 320.087C400.327 322.265 402.507 324.462 404.782 326.557C406.31 327.962 408.055 329.295 409.427 330.85C410.127 331.645 410.707 332.425 410.775 333.515C410.875 335.1 410.332 336.492 409.232 337.625C408.277 338.61 406.737 339.452 405.332 339.392C403.415 339.312 401.925 337.887 400.547 336.697C398.255 334.722 396.107 332.63 393.957 330.502C390.59 327.172 387.207 323.857 384.005 320.365L383.91 373.8C383.79 375.632 383.672 377.4 382.132 378.637C380.482 379.962 378.707 379.86 376.745 379.642C376.097 379.272 375.495 378.897 374.952 378.377C374.26 377.71 373.745 376.827 373.595 375.875C373.25 373.677 373.38 371.367 373.39 369.15C373.405 365.985 373.397 362.825 373.377 359.662C373.28 345.805 373.385 331.95 373.52 318.095C372.39 319.665 370.93 321.042 369.587 322.432C366.74 325.385 363.76 328.215 360.825 331.08C358.377 333.467 355.785 336.53 352.972 338.425C351.775 339.23 350.542 339.457 349.127 339.12C347.685 338.775 346.212 337.747 345.507 336.432C344.85 335.207 344.66 333.472 345.185 332.172C345.482 331.435 346.082 330.79 346.627 330.227C348.37 328.427 350.367 326.825 352.19 325.102C355.862 321.63 359.46 318.072 363.097 314.562C365.542 312.205 368.02 309.872 370.41 307.46C371.737 306.12 372.972 304.607 374.39 303.37C375.132 302.72 375.885 302.362 376.792 302.002Z" fill="black"/><path d="M375.38 262.857L375.447 262.847C395.922 261.842 416.717 269.587 431.78 283.462C447.837 298.257 456.82 318.007 457.67 339.757C458.417 358.877 450.935 378.865 437.96 392.875C424.24 407.687 404.445 417.747 384.09 418.507C361.977 419.335 341.34 413.142 324.89 397.892C318.692 392.147 312.805 384.85 309.04 377.295C308.225 375.665 307.215 373.78 307.215 371.912C307.215 370.57 307.965 369.092 308.965 368.207C310.12 367.187 311.397 367.092 312.875 367.227C314.065 367.335 315.165 367.887 315.925 368.815C317.457 370.677 318.527 373.435 319.8 375.54C322.14 379.41 324.837 382.917 327.8 386.325C331.715 390.822 336.66 394.575 341.625 397.827C356.49 407.565 376.032 410.552 393.32 406.89C410.982 403.147 426.937 392.68 436.807 377.495C445.987 363.372 449.492 344.232 445.887 327.75C441.862 309.34 430.922 293.775 415.042 283.67C395.647 271.33 370.332 269.925 349.345 279.037C347.01 280.05 344.695 281.167 342.467 282.4C340.232 283.635 337.245 286.327 334.797 286.75C333.09 287.042 331.62 286.55 330.277 285.505C329.097 284.587 328.462 283.712 328.322 282.192C328.2 280.877 328.595 279.645 329.455 278.657C331.257 276.585 334.21 275.032 336.56 273.67C348.675 266.65 361.495 263.507 375.38 262.857Z" fill="black"/><path d="M173.877 178.076L175.651 178.02C179.054 177.986 182.241 178.858 185.038 180.826C188.229 183.071 190.919 186.138 193.66 188.888C197.634 192.877 201.596 196.856 205.535 200.88C217.265 212.867 229.139 224.832 241.158 236.529C242.541 235.504 243.797 234.023 245.03 232.803C247.391 230.464 249.771 228.147 252.182 225.858C263.227 215.366 274.092 204.689 285.115 194.17C289.08 190.384 293.102 185.582 297.735 182.625C300.032 181.16 302.702 180.369 305.412 180.201C308.975 179.981 312.295 180.536 315.41 182.355C317.58 183.621 319.442 185.45 321.317 187.106C324.105 189.57 326.9 192.029 329.692 194.488C342.765 206.002 355.532 217.875 368.625 229.358C370.13 230.679 371.687 231.892 371.77 234.06C371.822 235.443 371.48 236.765 370.497 237.779C368.995 239.334 366.512 240.01 364.472 239.159C362.482 238.328 360.947 236.802 359.377 235.373C357.275 233.458 355.187 231.527 353.075 229.625C342.365 219.986 331.765 210.141 320.867 200.719C317.62 197.91 314.28 194.32 310.65 192.06C309.107 191.101 307.542 190.703 305.737 190.729C304.712 190.743 303.835 190.925 302.975 191.515C301.3 192.665 299.772 194.51 298.267 195.918C293.88 200.025 289.567 204.167 285.267 208.364C277.102 216.334 268.582 223.954 260.582 232.087L248.373 244.016C248.855 244.932 250.472 246.03 251.282 246.782C253.302 248.657 255.215 250.67 257.177 252.607C258.855 254.26 262.067 256.775 262.725 259.09C263.06 260.262 262.855 261.982 262.27 263.05C261.537 264.38 260.402 265.075 258.97 265.435C257.67 265.76 256.227 265.702 255.072 264.962C252.727 263.457 250.455 260.672 248.462 258.707C243.3 253.615 238.196 248.5 233.103 243.342C219.275 229.34 205.311 215.454 191.383 201.549C188.964 199.134 186.604 196.659 184.238 194.191C182.6 192.484 180.884 190.413 178.786 189.273C176.803 188.194 174.317 188.264 172.347 189.336C169.947 190.643 167.892 192.914 165.901 194.761C162.838 197.603 159.762 200.428 156.683 203.251C141.196 217.452 125.812 231.771 110.363 246.012C103.844 252.022 97.6183 258.407 90.8493 264.145C90.2531 264.65 89.3729 265.39 88.5906 265.5L88.1089 265.502C86.9849 265.522 85.8404 265.65 84.8026 265.117C83.5499 264.475 82.4751 263.26 82.1168 261.885C81.7613 260.517 81.9608 259.135 82.6968 257.942C83.6798 256.35 85.4801 255.007 86.8489 253.72C90.5964 250.2 94.4981 246.851 98.2428 243.331C112.97 229.488 127.814 215.765 142.697 202.088C147.487 197.687 152.286 193.296 157.085 188.904C159.634 186.572 162.129 184.084 164.8 181.901C166.776 180.286 168.891 179.036 171.406 178.476L173.877 178.076Z" fill="black"/><path d="M79.3771 97.125C96.3518 96.9232 113.362 97.2062 130.341 97.1772C181.668 97.0892 232.993 97.2145 284.32 97.1715C313.66 97.147 343 97.2015 372.34 97.181C382.76 97.1735 393.18 97.1662 403.6 97.1762C409.045 97.1814 414.565 97.0145 420 97.258C421.3 97.3162 422.49 97.6585 423.47 98.554C424.497 99.4965 424.77 100.757 424.852 102.099C425.252 108.547 424.942 115.226 424.965 121.698C425.017 136.956 424.89 152.212 424.935 167.469C424.977 181.798 424.977 196.127 424.955 210.456C424.945 217.608 425.397 225.145 424.77 232.25C424.665 233.432 424.312 234.565 423.48 235.442C422.547 236.424 421.207 236.983 419.865 237.037C418.117 237.106 416.647 236.682 415.385 235.418C414.665 234.699 414.345 233.841 414.267 232.837C413.927 228.42 414.28 223.723 414.322 219.274C414.397 211.664 414.355 204.058 414.337 196.447C414.267 166.822 414.44 137.194 414.3 107.57C411.057 107.86 407.655 107.706 404.395 107.721C397.805 107.751 391.212 107.727 384.62 107.722C365.11 107.708 345.597 107.728 326.085 107.733C263.385 107.75 200.683 107.751 137.981 107.714C119.21 107.703 100.441 107.724 81.6706 107.743C76.7646 107.748 71.8588 107.748 66.9528 107.739C64.6823 107.735 62.0571 107.449 59.8468 107.827L59.9313 356.465C74.8308 356.685 89.7681 356.405 104.672 356.417C137.59 356.44 170.506 356.467 203.424 356.362C216.706 356.32 229.988 356.33 243.27 356.305C250.422 356.29 257.687 356.002 264.827 356.3C266.015 356.35 267.087 356.465 268.055 357.2C269.282 358.13 270.295 359.575 270.465 361.137C270.595 362.332 270.175 363.785 269.425 364.725C268.262 366.187 266.757 366.79 264.927 366.95C261.542 367.25 257.92 366.945 254.515 366.912C248.675 366.86 242.835 366.905 236.996 366.93C213.401 367.03 189.796 366.955 166.201 366.92C140.932 366.88 115.658 366.922 90.3886 366.952C82.2941 366.962 74.1996 366.975 66.1051 366.99C62.2818 366.995 58.3096 367.235 54.4996 367C53.1603 366.917 52.0298 366.432 51.0351 365.532C49.9018 364.505 49.6083 363.23 49.5243 361.752C49.1141 354.535 49.4963 347.065 49.4853 339.82C49.4618 324.245 49.4703 308.672 49.4761 293.097C49.4936 246.618 49.4978 200.139 49.4823 153.66C49.4801 146.506 48.9758 101.385 49.8478 99.8137C50.1166 99.3292 50.4061 98.9135 50.7928 98.5152C51.3703 97.92 52.0266 97.415 52.8631 97.2705C55.5013 96.815 58.8551 97.1862 61.5623 97.1882C67.5003 97.1927 73.4391 97.152 79.3771 97.125Z" fill="black"/>
</svg>