<svg xmlns="http://www.w3.org/2000/svg" version="1.1" x="0px" y="0px" viewBox="0 0 100 125"><g transform="translate(0,-952.36218)"><path style="text-indent:0;text-transform:none;direction:ltr;block-progression:tb;baseline-shift:baseline;color:#000000;enable-background:accumulate;" d="m 21,969.36217 c -8.8467,0 -16,7.1533 -16,16 l 0,22.00003 c 0,8.8467 7.1533,16 16,16 l 44.3125,0 c 1.38932,6.8443 7.43864,12 14.6875,12 8.27243,0 15,-6.7276 15,-15 0,-7.2489 -5.15567,-13.2982 -12,-14.6875 l 0,-20.31253 c 0,-8.8467 -7.1533,-16 -16,-16 z m 0,2 46,0 c 7.7733,0 14,6.2267 14,14 l 0,20.03123 c -0.33202,-0.022 -0.66248,-0.031 -1,-0.031 -8.27243,0 -15,6.7276 -15,15 0,0.3375 0.009,0.668 0.0312,1 L 21,1021.3622 c -7.7733,0 -14,-6.2267 -14,-14 l 0,-22.00003 c 0,-7.7733 6.2267,-14 14,-14 z m 17.03125,14 0,22.21883 c 0.12986,0.6448 0.94153,1.0076 1.46875,0.6562 l 18,-11.00003 c 0.56034,-0.3669 0.56034,-1.3831 0,-1.75 l -18,-11 c -0.95116,-0.3641 -1.43567,0.3647 -1.46875,0.875 z M 40,987.14337 55.0625,996.36217 40,1005.581 z m 40,20.21883 c 7.19155,0 13,5.8084 13,13 0,7.1916 -5.80845,13 -13,13 -7.19155,0 -13,-5.8084 -13,-13 0,-7.1916 5.80845,-13 13,-13 z m 0,5 c -0.26646,0 -0.50827,0.1112 -0.6875,0.2812 -1.66863,1.6587 -3.35611,3.3352 -5.03125,5 -0.3571,0.3905 -0.39051,1.0469 0,1.4376 0.39052,0.3904 1.04698,0.3903 1.4375,0 L 79,1015.7684 l 0,11.5938 c 0,0.5523 0.44773,1 1,1 0.55227,0 1,-0.4477 1,-1 l 0,-11.5938 3.28125,3.3126 c 0.36708,0.3707 1.04698,0.3904 1.4375,0 0.39051,-0.3907 0.36313,-1.0588 0,-1.4376 -1.67063,-1.6607 -3.37837,-3.3563 -5.03125,-5 -0.17923,-0.17 -0.42104,-0.2812 -0.6875,-0.2812 z" fill="#000000" fill-opacity="1" stroke="none" marker="none" visibility="visible" display="inline" overflow="visible"/></g></svg>